<?xml version="1.0" encoding="UTF-8"?>
<svg width="1000px" height="300px" viewBox="0 0 1000 300" version="1.1" xmlns="http://www.w3.org/2000/svg" xmlns:xlink="http://www.w3.org/1999/xlink">
    <!-- Generator: Sketch 41.2 (35397) - http://www.bohemiancoding.com/sketch -->
    <title>Dual Graph</title>
    <desc>Created with Sketch.</desc>
    <defs></defs>
    <g id="Page-1" stroke="none" stroke-width="1" fill="none" fill-rule="evenodd">
        <g id="Graph-Theory-and-Comp-Sci-Diagrams">
            <g id="Dual-Graph">
                <rect id="BG" fill="#FFFFFF" x="0" y="0" width="1000" height="300"></rect>
                <g id="Strip" transform="translate(214.000000, 49.000000)" stroke="#979797">
                    <polygon id="Path-2" points="0.349280904 141.699086 97.304531 30.6728071 282.264878 42.7011755 491.065748 0.65309464 571.514708 94.4163321 410.343674 130.262463 217.4289 119.867085 175.568584 201.499537"></polygon>
                    <path d="M97.5,30.5 L175.549386,201.050846" id="Path-4"></path>
                    <path d="M217.5,119.5 L97.4449695,30.8039032" id="Path-5"></path>
                    <path d="M282.964731,42.763764 L217.5,119.5" id="Path-6"></path>
                    <path d="M282.5,42.5 L410.363817,130.222352" id="Path-7"></path>
                    <path d="M491.316102,0.414120432 L410.217729,130.291607" id="Path-8"></path>
                    <path d="M175.745932,201.553229 L410.505355,130.181266" id="Path-13"></path>
                </g>
                <g id="Dual" transform="translate(293.000000, 107.000000)">
                    <ellipse id="Oval" fill="#8E44AD" cx="7.08846496" cy="65.0894747" rx="7.08846496" ry="7.08947471"></ellipse>
                    <ellipse id="Oval-Copy" fill="#8E44AD" cx="88.088465" cy="58.0894747" rx="7.08846496" ry="7.08947471"></ellipse>
                    <ellipse id="Oval-Copy-2" fill="#8E44AD" cx="128.088465" cy="7.08947471" rx="7.08846496" ry="7.08947471"></ellipse>
                    <ellipse id="Oval-Copy-3" fill="#8E44AD" cx="214.088465" cy="36.0894747" rx="7.08846496" ry="7.08947471"></ellipse>
                    <ellipse id="Oval-Copy-4" fill="#8E44AD" cx="317.088465" cy="7.08947471" rx="7.08846496" ry="7.08947471"></ellipse>
                    <ellipse id="Oval-Copy-5" fill="#8E44AD" cx="160.088465" cy="94.0894747" rx="7.08846496" ry="7.08947471"></ellipse>
                    <ellipse id="Oval-Copy-5" fill="#8E44AD" cx="411.088465" cy="13.0894747" rx="7.08846496" ry="7.08947471"></ellipse>
                    <path d="M7.40138081,66.2366663 L88.0594682,59.2961132 L128.427891,6.36578164 L213.37337,35.6145522 L316.881136,6.93185512 L408.841003,12.6024347 M159.401381,94.3657816 L88.4415909,58.949657 M159.378069,94.4792936 L213.469542,36.0135354" id="Path-12" stroke="#8E44AD" stroke-dasharray="1,1,1"></path>
                </g>
            </g>
        </g>
    </g>
</svg>