<?xml version="1.0" encoding="UTF-8"?>
<svg width="1000px" height="300px" viewBox="0 0 1000 300" version="1.1" xmlns="http://www.w3.org/2000/svg" xmlns:xlink="http://www.w3.org/1999/xlink">
    <!-- Generator: Sketch 42 (36781) - http://www.bohemiancoding.com/sketch -->
    <title>Avoiding cache staleness</title>
    <desc>Created with Sketch.</desc>
    <defs>
        <linearGradient x1="42.6829584%" y1="-18.5700595%" x2="94.7277052%" y2="134.619758%" id="linearGradient-1">
            <stop stop-color="#8E44AD" offset="0%"></stop>
            <stop stop-color="#8C52D2" offset="100%"></stop>
        </linearGradient>
    </defs>
    <g id="Page-1" stroke="none" stroke-width="1" fill="none" fill-rule="evenodd">
        <g id="Avoiding-cache-staleness">
            <rect id="BG" fill="url(#linearGradient-1)" x="0" y="0" width="1000" height="300"></rect>
            <g id="Group" transform="translate(394.000000, 68.000000)" fill="#FFFFFF">
                <path d="M106,106.071429 C46.5575556,106.071429 0,82.7710714 0,53.0357143 C0,23.3003571 46.5575556,0 106,0 C165.442444,0 212,23.3003571 212,53.0357143 C212,82.7710714 165.442444,106.071429 106,106.071429 Z M106,11.7857143 C49.6433333,11.7857143 11.7777778,33.1178571 11.7777778,53.0357143 C11.7777778,72.9535714 49.6433333,94.2857143 106,94.2857143 C162.356667,94.2857143 200.222222,72.9535714 200.222222,53.0357143 C200.222222,33.1178571 162.356667,11.7857143 106,11.7857143 Z" id="Shape" fill-rule="nonzero"></path>
                <ellipse id="Oval" fill-rule="nonzero" cx="29.4444444" cy="111.964286" rx="5.88888889" ry="5.89285714"></ellipse>
                <path d="M106,165 C46.5575556,165 0,141.699643 0,111.964286 L11.7777778,111.964286 C11.7777778,131.882143 49.6433333,153.214286 106,153.214286 C162.356667,153.214286 200.222222,131.882143 200.222222,111.964286 L212,111.964286 C212,141.699643 165.442444,165 106,165 Z" id="Shape" fill-rule="nonzero"></path>
                <polygon id="Path-2" points="0 114.039468 0 53.0528861 11.2644798 53.0357143 11.7890932 117.42757"></polygon>
                <polygon id="Path-2" transform="translate(206.111111, 85.231642) scale(-1, 1) translate(-206.111111, -85.231642) " points="200.222222 112.02507 200.222222 53.0528861 211.47589 53.0357143 212 117.42757"></polygon>
            </g>
        </g>
    </g>
</svg>