<?xml version="1.0" encoding="UTF-8"?>
<svg width="1000px" height="300px" viewBox="0 0 1000 300" version="1.1" xmlns="http://www.w3.org/2000/svg" xmlns:xlink="http://www.w3.org/1999/xlink">
    <defs>
        <linearGradient x1="42.6829584%" y1="-18.5700595%" x2="94.7277052%" y2="134.619758%" id="linearGradient-1">
            <stop stop-color="#8E44AD" offset="0%"></stop>
            <stop stop-color="#8C52D2" offset="100%"></stop>
        </linearGradient>
    </defs>
    <g id="Page-1" stroke="none" stroke-width="1" fill="none" fill-rule="evenodd">
        <g id="End-to-end-api-typing">
            <rect id="BG" fill="url(#linearGradient-1)" x="0" y="0" width="1000" height="300"></rect>
            <g id="Group" transform="translate(384.000000, 59.000000)" fill="#FFFFFF" fill-rule="nonzero">
                <path d="M233,45.75 L233,0 L0,0 L0,45.75 L0,183 L233,183 L233,45.75 Z M227.752252,177.741379 L5.24774775,177.741379 L5.24774775,45.75 L227.752252,45.75 L227.752252,177.741379 Z M227.752252,40.4913793 L5.24774775,40.4913793 L5.24774775,5.25862069 L227.752252,5.25862069 L227.752252,40.4913793 Z" id="Shape"></path>
                <path d="M21.5,34 C27.7727273,34 33,28.7727273 33,22.5 C33,16.2272727 27.7727273,11 21.5,11 C15.2272727,11 10,16.2272727 10,22.5 C10,28.7727273 15.2272727,34 21.5,34 Z M21.5,16.2272727 C24.8977273,16.2272727 27.7727273,19.1022727 27.7727273,22.5 C27.7727273,25.8977273 24.8977273,28.7727273 21.5,28.7727273 C18.1022727,28.7727273 15.2272727,25.8977273 15.2272727,22.5 C15.2272727,19.1022727 18.1022727,16.2272727 21.5,16.2272727 Z" id="Shape"></path>
                <path d="M48.5,34 C54.7727273,34 60,28.7727273 60,22.5 C60,16.2272727 54.7727273,11 48.5,11 C42.2272727,11 37,16.2272727 37,22.5 C37,28.7727273 41.9659091,34 48.5,34 Z M48.5,16.2272727 C51.8977273,16.2272727 54.7727273,19.1022727 54.7727273,22.5 C54.7727273,25.8977273 51.8977273,28.7727273 48.5,28.7727273 C45.1022727,28.7727273 42.2272727,25.8977273 42.2272727,22.5 C42.2272727,19.1022727 44.8409091,16.2272727 48.5,16.2272727 Z" id="Shape"></path>
                <path d="M75.5,34 C81.7727273,34 87,28.7727273 87,22.5 C87,16.2272727 81.7727273,11 75.5,11 C69.2272727,11 64,16.2272727 64,22.5 C64,28.7727273 69.2272727,34 75.5,34 Z M75.5,16.2272727 C78.8977273,16.2272727 81.7727273,19.1022727 81.7727273,22.5 C81.7727273,25.8977273 78.8977273,28.7727273 75.5,28.7727273 C72.1022727,28.7727273 69.2272727,25.8977273 69.2272727,22.5 C69.2272727,19.1022727 72.1022727,16.2272727 75.5,16.2272727 Z" id="Shape"></path>
                <path d="M30.6277372,112.649573 L55.0656934,112.649573 C56.379562,128.547009 69.5182482,141 85.810219,141 L97.3722628,141 C98.9489051,141 100,139.940171 100,138.350427 L100,81.6495726 C100,80.0598291 98.9489051,79 97.3722628,79 L85.810219,79 C69.7810219,79 56.6423358,91.4529915 55.0656934,107.350427 L30.6277372,107.350427 C29.0510949,107.350427 28,108.410256 28,110 C28,111.589744 29.0510949,112.649573 30.6277372,112.649573 Z M85.810219,84.2991453 L94.7445255,84.2991453 L94.7445255,135.700855 L85.810219,135.700855 C71.8832117,135.700855 60.3211679,124.042735 60.3211679,110 C60.3211679,95.957265 71.620438,84.2991453 85.810219,84.2991453 Z" id="Shape"></path>
                <path d="M117.609971,121.65812 C116.043988,121.65812 115,122.717949 115,124.307692 C115,125.897436 116.043988,126.957265 117.609971,126.957265 L132.486804,126.957265 L132.486804,138.350427 C132.486804,139.940171 133.530792,141 135.096774,141 L146.580645,141 C162.501466,141 175.55132,128.547009 177.117302,112.649573 L201.390029,112.649573 C202.956012,112.649573 204,111.589744 204,110 C204,108.410256 202.956012,107.350427 201.390029,107.350427 L177.117302,107.350427 C175.812317,91.4529915 162.762463,79 146.580645,79 L135.096774,79 C133.530792,79 132.486804,80.0598291 132.486804,81.6495726 L132.486804,93.042735 L117.609971,93.042735 C116.043988,93.042735 115,94.1025641 115,95.6923077 C115,97.2820513 116.043988,98.3418803 117.609971,98.3418803 L132.486804,98.3418803 L132.486804,121.923077 L117.609971,121.923077 L117.609971,121.65812 Z M137.445748,84.034188 L146.319648,84.034188 C160.152493,84.034188 171.636364,95.6923077 171.636364,109.735043 C171.636364,123.777778 160.152493,135.435897 146.319648,135.435897 L137.445748,135.435897 L137.445748,84.034188 Z" id="Shape"></path>
            </g>
        </g>
    </g>
</svg>