<?xml version="1.0" encoding="UTF-8"?>
<svg width="1000px" height="300px" viewBox="0 0 1000 300" version="1.1" xmlns="http://www.w3.org/2000/svg" xmlns:xlink="http://www.w3.org/1999/xlink">
    <!-- Generator: Sketch 42 (36781) - http://www.bohemiancoding.com/sketch -->
    <title>filtered queries</title>
    <desc>Created with Sketch.</desc>
    <defs>
        <linearGradient x1="42.6829584%" y1="-18.5700595%" x2="94.7277052%" y2="134.619758%" id="linearGradient-1">
            <stop stop-color="#8E44AD" offset="0%"></stop>
            <stop stop-color="#8C52D2" offset="100%"></stop>
        </linearGradient>
    </defs>
    <g id="Page-1" stroke="none" stroke-width="1" fill="none" fill-rule="evenodd">
        <g id="filtered-queries">
            <rect id="BG" fill="url(#linearGradient-1)" x="0" y="0" width="1000" height="300"></rect>
            <path d="M513.166301,207.940899 L513.166301,232.116141 C513.15632,235.913849 510.080151,238.990019 506.282442,239 L493.56819,239 C489.770482,238.990019 486.694312,235.913849 486.684331,232.116141 L486.684331,207.886409 L434.119981,153.396758 C429.748227,149.723832 427.156832,144.355943 427,138.648226 C427,127.078257 437.498339,118.832157 452.555646,113.619313 C453.612322,115.452306 454.913888,117.132731 456.424411,118.614198 L466.831935,129.094374 C454.281152,132.091305 447.342803,136.250682 445.980562,138.648226 C448.196474,142.73495 466.323365,151.816559 500.016132,151.816559 C533.7089,151.816559 551.83579,142.73495 554.051703,138.702716 C552.725788,136.323335 545.751112,132.163958 533.272982,129.148864 L543.680506,118.668688 C544.499727,117.846606 545.258502,116.966427 545.950908,116.035021 C546.502924,115.280671 547.006454,114.492009 547.458455,113.673803 C562.515762,118.886646 572.995938,127.132747 572.995938,138.702716 C572.95593,143.659436 571.003906,148.40936 567.546973,151.961864 L513.166301,207.940899 Z M472.22641,98.9615972 C471.535766,99.0924316 470.860242,99.2932631 470.210293,99.5609834 C469.567408,99.8132488 468.95751,100.142594 468.393971,100.541797 C467.149577,101.435311 466.231155,102.710897 465.778468,104.174441 C465.529141,104.978794 465.436649,105.823554 465.50602,106.662801 C465.575641,107.493087 465.790827,108.304644 466.141733,109.060346 C466.517064,109.868093 467.019956,110.610166 467.631116,111.258095 L493.386558,138.6119 C493.788905,139.038648 494.240027,139.416615 494.730636,139.738019 C495.233107,140.07103 495.76876,140.351031 496.328999,140.573527 C496.91666,140.801115 497.524923,140.971428 498.145321,141.082097 C499.411786,141.319333 500.711294,141.319333 501.97776,141.082097 C502.598234,140.971762 503.206528,140.801439 503.794081,140.573527 C504.354485,140.35139 504.890175,140.07137 505.392444,139.738019 C505.876207,139.421801 506.321218,139.049942 506.718359,138.630063 L532.346658,111.258095 C532.643529,110.939419 532.916705,110.599466 533.164003,110.240955 C533.404424,109.895093 533.616996,109.530683 533.799716,109.151162 C533.977922,108.776827 534.12376,108.387926 534.235633,107.988716 C534.368671,107.592569 534.46593,107.185294 534.526244,106.771781 C534.548022,106.46339 534.548022,106.153847 534.526244,105.845456 C534.48942,104.918541 534.26058,104.009363 533.854205,103.175464 C533.528359,102.507041 533.099297,101.894095 532.58278,101.359142 C532.047138,100.813754 531.435351,100.348796 530.766458,99.9787374 C530.061737,99.6032275 529.310568,99.3223025 528.532383,99.1432294 C527.718977,98.9373307 526.883082,98.8336065 526.044022,98.8344547 L515.309561,98.8344547 L516.580986,69.7733076 C516.631559,68.6395681 516.446005,67.5076883 516.03609,66.4494389 C515.626495,65.3982255 515.008689,64.4406265 514.219768,63.6341402 C513.405322,62.8108054 512.436222,62.1565085 511.368143,61.7088392 C510.217825,61.228826 508.981888,60.9878181 507.735499,61.0004738 L492.260439,61.0004738 C491.01405,60.9878181 489.778113,61.228826 488.627795,61.7088392 C487.585631,62.1647663 486.641858,62.818622 485.848823,63.6341402 C485.059901,64.4406265 484.442096,65.3982255 484.032501,66.4494389 C483.608863,67.5233034 483.416983,68.6745832 483.469442,69.8277972 L484.740867,98.8889444 L474.405996,98.8889444 C473.677098,98.8637026 472.94743,98.9062665 472.22641,99.0160869 L472.22641,98.9615972 Z" id="Shape" fill="#FFFFFF" fill-rule="nonzero"></path>
        </g>
    </g>
</svg>