<svg width="1000" height="300" viewBox="0 0 1000 300" fill="none" xmlns="http://www.w3.org/2000/svg">
<g id="End to end api typing">
<rect id="BG" width="1000" height="300" fill="url(#paint0_linear_0_34)"/>
<path id="Vector" d="M500.5 63C477.293 63 455.037 72.2186 438.627 88.6274C422.219 105.037 413 127.294 413 150.5C413 173.706 422.219 195.963 438.627 212.373C455.037 228.781 477.294 238 500.5 238C523.706 238 545.963 228.781 562.373 212.373C578.781 195.963 588 173.706 588 150.5C588 135.141 583.957 120.052 576.277 106.751C568.598 93.4487 557.552 82.4031 544.25 74.7235C530.949 67.044 515.86 63.001 500.501 63.001L500.5 63ZM500.5 226.331C480.388 226.331 461.1 218.342 446.877 204.121C432.656 189.9 424.667 170.611 424.667 150.498C424.667 130.385 432.656 111.098 446.877 96.8753C461.098 82.6541 480.387 74.6645 500.5 74.6645C520.613 74.6645 539.9 82.6541 554.123 96.8753C568.344 111.096 576.333 130.385 576.333 150.498C576.333 170.611 568.344 189.898 554.123 204.121C539.902 218.342 520.613 226.331 500.5 226.331V226.331ZM545.126 181.065C546.709 182.421 547.45 184.517 547.07 186.565C546.689 188.615 545.243 190.305 543.279 190.999C541.312 191.694 539.126 191.287 537.543 189.932L500.793 158.433C496.905 155.107 494.668 150.248 494.668 145.132V92.1663C494.668 90.0817 495.78 88.156 497.585 87.1143C499.39 86.0727 501.614 86.0727 503.418 87.1143C505.223 88.156 506.335 90.0817 506.335 92.1663V145.132C506.335 146.838 507.081 148.458 508.377 149.566L545.126 181.065Z" fill="white"/>
</g>
<defs>
<linearGradient id="paint0_linear_0_34" x1="-339.119" y1="22.3569" x2="-287.41" y2="529.701" gradientUnits="userSpaceOnUse">
<stop stop-color="#8E44AD"/>
<stop offset="1" stop-color="#8C52D2"/>
</linearGradient>
</defs>
</svg>
